<?xml version="1.0" encoding="utf-8"?>
<!-- Generator: Adobe Illustrator 24.3.0, SVG Export Plug-In . SVG Version: 6.00 Build 0)  -->
<svg version="1.1" id="Calque_1" xmlns="http://www.w3.org/2000/svg" xmlns:xlink="http://www.w3.org/1999/xlink" x="0px" y="0px"
	 viewBox="0 0 1920 1080" style="enable-background:new 0 0 1920 1080;" xml:space="preserve">
<style type="text/css">
	.st0{fill:#FFFFFF;}
	.st1{fill:#0012A2;}
	.st2{fill:none;}
	.st3{font-family:'BodoniMT';}
	.st4{font-size:209.9971px;}
	.st5{font-size:41.9994px;}
	.st6{fill:none;stroke:#0012A2;stroke-width:4;stroke-miterlimit:10;}
	.st7{fill:none;stroke:#0012A2;stroke-miterlimit:10;}
</style>
<g>
	<rect x="531.95" y="531.1" class="st0" width="471.5" height="65.8"/>
	<path class="st1" d="M632.76,485.28c1.03,0.13,1.74,0.21,2.74,0.33c-0.61-1.79-1.16-3.27-1.62-4.79c-0.86-2.87-1.79-5.73-2.45-8.66
		c-1.31-5.86-1.15-11.82-0.83-17.78c0.02-0.45,0.02-0.92,0.12-1.36c0.2-0.91-0.04-1.58-0.77-2.18c-0.63-0.52-1.23-1.12-1.71-1.78
		c-0.25-0.34-0.34-0.92-0.25-1.34c0.04-0.2,0.67-0.38,1.04-0.39c2.92-0.06,2.85-0.06,3.33-3c0.24-1.45,0.75-2.86,1.2-4.27
		c0.49-1.52,1.01-3.03,1.59-4.51c0.36-0.92,0.86-1.79,1.62-2.67c0.03,0.43,0.2,0.92,0.06,1.28c-1.21,3.02-2.08,6.13-2.56,9.35
		c-0.12,0.81-0.43,1.59-0.59,2.4c-0.19,1.04,0.15,1.33,1.12,1.03c2.63-0.81,5.27-1.58,7.87-2.47c1.23-0.42,2.43-1,3.52-1.71
		c0.41-0.26,0.62-1.08,0.65-1.65c0.15-3.43,0.12-6.86,0.36-10.28c0.15-2.1,0.67-4.17,1.25-6.32c0.1,0.39,0.26,0.77,0.27,1.16
		c0.09,3.51,0.14,7.02,0.23,10.53c0.03,1.2,0.12,2.4,0.21,3.59c0.09,1.2,0.62,1.54,1.73,1.04c1.35-0.6,2.67-1.28,3.98-1.96
		c2.76-1.44,5.52-2.91,8.27-4.38c0.8-0.43,1.57-0.89,2.35-1.36c0.76-0.45,0.79-1.09,0.41-1.81c-1.65-3.12-3.31-6.23-4.95-9.36
		c-0.61-1.16-1.16-2.35-1.71-3.54c-0.1-0.22-0.05-0.52-0.07-0.78c0.1-0.04,0.2-0.09,0.3-0.13c2.56,3.6,5.13,7.2,7.68,10.81
		c1.9,2.7,1.93,2.76,4.7,1c4.07-2.59,8.08-5.26,12.1-7.92c1.48-0.99,1.5-1.34,0.02-2.24c-3.44-2.09-6.9-4.15-10.41-6.12
		c-1.18-0.67-2.53-1.05-3.78-1.85c0.41-0.04,0.85-0.2,1.22-0.09c2,0.61,4.04,1.13,5.95,1.96c3.39,1.47,6.71,3.13,10.04,4.74
		c0.85,0.41,1.55,0.32,2.27-0.3c1.86-1.57,3.74-3.11,5.62-4.65c0.35-0.29,0.7-0.59,1.1-0.8c0.24-0.13,0.57-0.11,0.86-0.15
		c-0.03,0.3,0.04,0.66-0.11,0.89c-1.15,1.85-2.33,3.68-3.52,5.5c-0.44,0.68-0.93,1.33-1.49,2.11c2.01,1.4,3.89,2.72,5.79,4.02
		c7.18,4.93,13.45,10.88,19.27,17.34c1.2,1.33,1.34,1.39,2.71,0.26c4.3-3.55,8.44-7.27,11.8-11.77c0.95-1.27,1.74-2.65,2.61-3.99
		c0.12,0,0.24,0,0.36,0c0.14,0.46,0.45,0.95,0.39,1.39c-0.32,2.23-0.35,4.61-1.19,6.64c-1.41,3.4-3.26,6.64-5.12,9.83
		c-1.09,1.88-2.54,3.56-3.88,5.28c-0.58,0.75-0.67,1.27-0.09,2.16c2.86,4.43,5.52,9,7.32,13.97c0.91,2.5,1.51,5.12,2.15,7.71
		c0.36,1.43,0.5,2.92,0.77,4.38c0.05,0.26,0.27,0.72,0.35,0.7c0.33-0.06,0.73-0.18,0.95-0.42c2.15-2.32,4.26-4.67,6.57-7.21
		c0.07,0.54,0.27,1.02,0.15,1.4c-0.63,1.87-1.1,3.84-2.07,5.52c-1.76,3.06-3.88,5.91-5.74,8.92c-0.76,1.23-1.35,2.61-1.8,3.99
		c-1.06,3.28-3.11,5.86-5.42,8.3c-0.68,0.72-1.42,1.37-2.16,2.02c-0.15,0.14-0.42,0.15-0.77,0.27c0.31-1.8,1.88-3.09,1.45-5.08
		c-0.32,0.12-0.61,0.15-0.8,0.3c-1.99,1.6-3.99,3.19-5.93,4.85c-0.29,0.25-0.38,0.87-0.38,1.32c0.01,0.7,0.24,1.38,0.28,2.08
		c0.07,0.99-0.3,1.74-1.24,2.23c-0.84,0.44-1.62,0.99-2.41,1.5c-1.58,1.03-2.71,1.05-4.2-0.11c-0.72-0.56-1.39-0.69-2.17-0.28
		c-2.39,1.27-4.77,2.55-7.47,4c1.68,0.13,3.06,0.23,4.68,0.35c-0.3,0.45-0.38,0.69-0.52,0.74c-2.99,0.99-5.93,2.43-9.18,2.09
		c-3.05-0.32-5.9,0.53-8.77,1.15c-3.12,0.67-6.17,0.75-9.28,0.2c-2.8-0.49-5.64-0.81-8.38-1.51c-2.78-0.72-5.5-1.71-8.16-2.79
		c-3.56-1.44-6.85-3.39-9.95-5.68c-4.12-3.05-7.64-6.68-10.63-10.82c-1.08-1.49-2.44-2.48-3.95-3.42
		C635.17,490.69,633.97,488.11,632.76,485.28z M691.86,461.34c0.66-0.34,1.27-0.6,1.82-0.95c1.98-1.26,3.96-2.53,5.91-3.85
		c3.71-2.51,7.39-5.06,11.08-7.61c0.71-0.49,0.93-1.06,0.31-1.86c-2.54-3.29-4.97-6.67-7.55-9.92c-3.89-4.9-8.49-9.1-13.13-13.26
		c-0.64-0.58-1.19-0.61-1.79,0.04c-4.31,4.63-9.05,8.79-14.09,12.61c-0.56,0.42-0.6,0.83-0.24,1.36c0.26,0.37,0.52,0.74,0.79,1.11
		c2.26,3.04,4.54,6.06,6.8,9.11c3.06,4.14,6.09,8.3,9.15,12.44C691.14,460.86,691.51,461.05,691.86,461.34z M684.14,466.23
		c-0.91-1.68-1.72-3.15-2.5-4.63c-1.67-3.17-3.32-6.34-4.97-9.51c-1.75-3.36-3.39-6.77-5.26-10.06c-1.14-2-0.71-2.77-3.38-1.06
		c-4.06,2.6-8.24,4.98-12.71,6.84c-1.43,0.6-2.84,1.26-4.31,1.91c0.24,0.68,0.44,1.22,0.61,1.76c1.03,3.25,1.87,6.57,3.14,9.73
		c1.57,3.93,3.48,7.72,5.28,11.55c0.56,1.19,1.17,2.37,1.91,3.46c0.3,0.44,1.04,0.92,1.47,0.84c0.81-0.16,1.55-0.71,2.31-1.11
		c2.49-1.29,4.98-2.56,7.45-3.87C676.79,470.16,680.37,468.24,684.14,466.23z M727.03,484.9c-0.27-1.12-0.48-2.04-0.72-2.96
		c-0.99-3.78-1.72-7.66-3.04-11.31c-1.49-4.09-3.51-7.99-5.32-11.96c-0.41-0.91-0.9-1.02-1.68-0.27c-2.3,2.19-4.6,4.38-7,6.45
		c-2.85,2.45-5.79,4.78-8.72,7.13c-0.61,0.49-0.74,0.9-0.27,1.55c1.64,2.27,3.28,4.54,4.86,6.85c2.86,4.18,5.71,8.38,8.49,12.61
		c0.55,0.83,1.02,0.98,1.79,0.47c1.2-0.8,2.42-1.56,3.6-2.39c2.49-1.76,4.97-3.54,7.42-5.34C726.74,485.51,726.9,485.1,727.03,484.9
		z M632.83,456.68c-0.11,0.01-0.23,0.03-0.34,0.04c0.58,4.29,1.14,8.57,1.75,12.86c0.75,5.24,2.93,10.01,4.91,14.85
		c0.32,0.77,0.86,1.31,1.84,1.04c1.19-0.33,2.41-0.55,3.57-0.95c3.27-1.1,6.53-2.25,9.78-3.44c0.35-0.13,0.75-0.68,0.76-1.04
		c0.02-0.58-0.21-1.2-0.42-1.77c-0.78-2.16-1.67-4.29-2.39-6.47c-0.75-2.26-1.44-4.55-1.99-6.87c-0.88-3.72-1.74-7.46-2.38-11.23
		c-0.49-2.89-0.47-3.01-3.34-2.24c-0.04,0.01-0.08,0.03-0.12,0.04c-3.38,0.83-6.77,1.47-10.27,0.88c-0.96-0.16-1.4,0.25-1.39,1.21
		C632.84,454.61,632.83,455.65,632.83,456.68z M704.32,500.16c-1.62-2.47-3.13-4.63-4.5-6.88c-2.77-4.54-5.47-9.11-8.16-13.69
		c-0.44-0.75-0.88-0.89-1.59-0.47c-3.1,1.79-6.16,3.66-9.32,5.33c-2.8,1.48-5.69,2.79-8.58,4.09c-1.29,0.58-1.48,0.84-0.58,1.91
		c1.73,2.05,3.49,4.07,5.29,6.05c3.83,4.2,8.27,7.68,13.03,10.76c0.26,0.17,0.75,0.25,1,0.12c3.15-1.6,6.29-3.23,9.41-4.89
		C701.65,501.78,702.92,500.98,704.32,500.16z M672.04,514.03c0.82-0.18,1.51-0.31,2.18-0.49c1.7-0.46,3.4-0.93,5.08-1.44
		c0.36-0.11,0.66-0.4,0.98-0.6c-0.24-0.3-0.44-0.65-0.73-0.89c-2.68-2.12-5.63-3.96-7.99-6.38c-3.09-3.18-5.74-6.78-8.51-10.26
		c-1.33-1.66-1.25-1.68-3.25-1.08c-1.45,0.44-2.92,0.9-4.41,1.11c-2.69,0.38-5.4,0.56-8.11,0.86c-0.33,0.04-0.81,0.18-0.92,0.42
		c-0.11,0.24,0.07,0.72,0.28,0.97c3.62,4.29,7.48,8.37,12.27,11.37c3.12,1.95,6.47,3.55,9.76,5.22
		C669.75,513.37,670.96,513.65,672.04,514.03z"/>
	<rect x="740.82" y="372.45" class="st2" width="524.67" height="282.91"/>
	<text transform="matrix(0.9994 0 0 1 740.8213 511.4902)" class="st1 st3 st4">WLA</text>
	<rect x="832.12" y="530.92" class="st2" width="585.88" height="183.75"/>
	<text transform="matrix(0.9994 0 0 1 832.1182 558.7285)" class="st1 st3 st5">You Buy Or What</text>
	<g>
		<path class="st1" d="M1045.4,389.35c3.39,0.99,6.67,1.94,9.94,2.9c7.22,2.11,14.44,4.21,21.65,6.34c3.29,0.97,6.58,1.98,9.85,3.02
			c0.58,0.19,1.14,0.53,1.63,0.91c0.51,0.4,0.49,0.86-0.03,1.36c-1.12,1.06-2.14,2.23-3.28,3.27c-0.82,0.74-1.78,1.34-2.67,1.99
			c-0.9,0.66-1.76,1.39-2.71,1.98c-4.59,2.86-9.52,4.92-14.8,6.12c-6.16,1.41-12.39,1.74-18.69,1.29c-0.6-0.04-0.88-0.25-1.09-0.81
			c-0.89-2.37-1.27-4.82-1.13-7.34c0.39-6.77,0.79-13.54,1.2-20.31C1045.3,389.87,1045.35,389.67,1045.4,389.35z"/>
		<path class="st1" d="M1046.29,432.82c-7.12-4.42-10.84-10.73-10.53-19.23c0.2-5.43,0.44-10.86,0.66-16.29
			c0.32-7.9-4.44-14.73-11.95-17.17c-1.36-0.44-2.17-1.79-1.8-2.99c0.46-1.48,1.74-2.18,3.26-1.66c8.46,2.93,13.52,8.82,15.08,17.64
			c0.66,3.7,0.06,7.43-0.04,11.14c-0.09,3.39-0.35,6.77-0.4,10.16c-0.08,5.62,2.2,10.08,6.74,13.42c2.24,1.64,4.86,2.3,7.41,3.15
			c4.6,1.53,9.22,3.01,13.83,4.53c3.97,1.3,7.95,2.6,11.9,3.95c0.92,0.32,1.95,0.49,2.56,1.47c0.76,1.22,0.15,2.78-1.18,3.27
			c-1.22,0.45-2.21-0.15-3.22-0.47c-3.36-1.04-6.68-2.24-10.03-3.32c-3.61-1.17-7.25-2.25-10.86-3.42
			c-3.33-1.08-6.64-2.22-9.95-3.37C1047.26,433.45,1046.79,433.1,1046.29,432.82z"/>
		<path class="st1" d="M1056.71,428.35c3.44-0.13,6.51-0.8,9.47-1.91c5.99-2.24,10.99-5.94,15.38-10.54
			c3.25-3.4,5.95-7.21,8.44-11.18c0.12-0.2,0.27-0.38,0.52-0.72c0.49,0.58,0.99,1.05,1.35,1.61c2.7,4.12,3.3,8.4,0.98,12.92
			c-0.69,1.35-1.27,2.77-1.91,4.15c-0.88,1.87-1.79,3.73-2.67,5.6c-0.79,1.68-1.53,3.39-2.34,5.06c-0.46,0.96-1,1.88-1.54,2.79
			c-0.3,0.51-0.78,0.54-1.34,0.37c-2.97-0.91-5.96-1.79-8.93-2.7c-5.62-1.71-11.23-3.43-16.85-5.15
			C1057.16,428.62,1057.06,428.54,1056.71,428.35z"/>
		<path class="st1" d="M1072.13,448.28c3.21,1.83,3.66,5.3,2.11,7.89c-1.59,2.68-4.57,3.89-7.86,2.14
			c-2.85-1.52-3.71-5.07-2.08-7.94C1065.89,447.54,1069.26,446.65,1072.13,448.28z"/>
		<path class="st1" d="M1051.31,448.78c-1.34,2.69-5.1,3.81-7.88,2.1c-2.66-1.63-3.63-4.99-2.06-7.83c1.53-2.77,4.94-3.67,7.78-2.22
			C1051.8,442.19,1053.14,445.94,1051.31,448.78z"/>
	</g>
	<line class="st6" x1="1163.74" y1="553.05" x2="1225.15" y2="553.39"/>
	<line class="st6" x1="766.65" y1="554" x2="828.06" y2="554.34"/>
	<path class="st7" d="M743.65,539.3H621.06c-6.6,0-12-5.4-12-12V404.62c0-6.6,5.4-12,12-12h122.59c6.6,0,12,5.4,12,12V527.3
		C755.65,533.9,750.25,539.3,743.65,539.3z"/>
</g>
</svg>
